<mxfile host="app.diagrams.net" modified="2023-03-27T18:33:54.496Z" agent="Mozilla/5.0 (Windows NT 10.0; Win64; x64) AppleWebKit/537.36 (KHTML, like Gecko) Chrome/110.0.0.0 Safari/537.36 OPR/96.0.0.0" etag="L0jy2v_qeun96FE1g885" version="21.1.1" type="github">
  <diagram id="KNxti8Jh9m4aMgP6MImH" name="Страница 1">
    <mxGraphModel dx="2221" dy="797" grid="1" gridSize="10" guides="1" tooltips="1" connect="1" arrows="1" fold="1" page="1" pageScale="1" pageWidth="827" pageHeight="1169" math="0" shadow="0">
      <root>
        <mxCell id="0" />
        <mxCell id="1" parent="0" />
        <mxCell id="5aSVwn7SnqU1LgRtDCpe-30" style="edgeStyle=orthogonalEdgeStyle;rounded=0;orthogonalLoop=1;jettySize=auto;html=1;exitX=0;exitY=0.5;exitDx=0;exitDy=0;entryX=0.5;entryY=0;entryDx=0;entryDy=0;fontFamily=Times New Roman;fontSize=20;" parent="1" edge="1">
          <mxGeometry relative="1" as="geometry">
            <Array as="points">
              <mxPoint x="-20" y="555" />
              <mxPoint x="-20" y="710" />
              <mxPoint x="215" y="710" />
            </Array>
            <mxPoint x="50" y="555" as="sourcePoint" />
          </mxGeometry>
        </mxCell>
        <mxCell id="5aSVwn7SnqU1LgRtDCpe-41" style="edgeStyle=orthogonalEdgeStyle;rounded=0;orthogonalLoop=1;jettySize=auto;html=1;exitX=0.5;exitY=1;exitDx=0;exitDy=0;entryX=0.5;entryY=0;entryDx=0;entryDy=0;fontFamily=Times New Roman;fontSize=20;" parent="1" edge="1">
          <mxGeometry relative="1" as="geometry">
            <Array as="points">
              <mxPoint x="228" y="1030" />
              <mxPoint x="-30" y="1030" />
              <mxPoint x="-30" y="430" />
            </Array>
            <mxPoint x="400" y="430" as="targetPoint" />
          </mxGeometry>
        </mxCell>
        <mxCell id="AwNMz8CC1qya_qeHFCOe-63" style="edgeStyle=orthogonalEdgeStyle;rounded=0;orthogonalLoop=1;jettySize=auto;html=1;exitX=0.5;exitY=1;exitDx=0;exitDy=0;entryX=0;entryY=0;entryDx=0;entryDy=0;fontFamily=Times New Roman;fontSize=20;" parent="1" edge="1">
          <mxGeometry relative="1" as="geometry">
            <Array as="points">
              <mxPoint x="360" y="1610" />
              <mxPoint x="190" y="1610" />
              <mxPoint x="190" y="1273" />
            </Array>
            <mxPoint x="500" y="1272.5" as="targetPoint" />
          </mxGeometry>
        </mxCell>
        <mxCell id="8iGEUKaCPKgXzd4NFr43-3" style="edgeStyle=orthogonalEdgeStyle;rounded=0;orthogonalLoop=1;jettySize=auto;html=1;exitX=0.5;exitY=1;exitDx=0;exitDy=0;entryX=0.5;entryY=0;entryDx=0;entryDy=0;" edge="1" parent="1" source="8iGEUKaCPKgXzd4NFr43-1" target="8iGEUKaCPKgXzd4NFr43-2">
          <mxGeometry relative="1" as="geometry" />
        </mxCell>
        <mxCell id="8iGEUKaCPKgXzd4NFr43-1" value="&lt;font face=&quot;Times New Roman&quot; style=&quot;font-size: 21px;&quot;&gt;Start&lt;/font&gt;" style="ellipse;whiteSpace=wrap;html=1;" vertex="1" parent="1">
          <mxGeometry x="329" y="120" width="170" height="100" as="geometry" />
        </mxCell>
        <mxCell id="8iGEUKaCPKgXzd4NFr43-5" style="edgeStyle=orthogonalEdgeStyle;rounded=0;orthogonalLoop=1;jettySize=auto;html=1;exitX=0.5;exitY=1;exitDx=0;exitDy=0;entryX=0.5;entryY=0;entryDx=0;entryDy=0;" edge="1" parent="1" source="8iGEUKaCPKgXzd4NFr43-2" target="8iGEUKaCPKgXzd4NFr43-4">
          <mxGeometry relative="1" as="geometry" />
        </mxCell>
        <mxCell id="8iGEUKaCPKgXzd4NFr43-2" value="&lt;font style=&quot;font-size: 21px;&quot;&gt;&lt;font face=&quot;Times New Roman&quot;&gt;array&lt;br&gt;size = array.Lenght&lt;/font&gt;&lt;br&gt;&lt;/font&gt;" style="shape=parallelogram;perimeter=parallelogramPerimeter;whiteSpace=wrap;html=1;fixedSize=1;" vertex="1" parent="1">
          <mxGeometry x="309" y="260" width="210" height="100" as="geometry" />
        </mxCell>
        <mxCell id="8iGEUKaCPKgXzd4NFr43-7" style="edgeStyle=orthogonalEdgeStyle;rounded=0;orthogonalLoop=1;jettySize=auto;html=1;exitX=0.5;exitY=1;exitDx=0;exitDy=0;entryX=0.5;entryY=0;entryDx=0;entryDy=0;" edge="1" parent="1" source="8iGEUKaCPKgXzd4NFr43-4" target="8iGEUKaCPKgXzd4NFr43-6">
          <mxGeometry relative="1" as="geometry" />
        </mxCell>
        <mxCell id="8iGEUKaCPKgXzd4NFr43-4" value="&lt;font style=&quot;font-size: 21px;&quot; face=&quot;Times New Roman&quot;&gt;&lt;font style=&quot;font-size: 21px;&quot;&gt;&lt;span style=&quot;&quot;&gt;&lt;br&gt;count =&lt;/span&gt;&lt;font style=&quot;font-size: 21px;&quot;&gt;&amp;nbsp;-1&lt;/font&gt;&lt;span style=&quot;&quot;&gt;&lt;br&gt;errorArray = 0&lt;br&gt;i = 0&lt;br&gt;j = 0&lt;br&gt;&lt;br&gt;&lt;/span&gt;&lt;/font&gt;&lt;/font&gt;" style="rounded=1;whiteSpace=wrap;html=1;" vertex="1" parent="1">
          <mxGeometry x="303.25" y="400" width="221.5" height="110" as="geometry" />
        </mxCell>
        <mxCell id="8iGEUKaCPKgXzd4NFr43-9" style="edgeStyle=orthogonalEdgeStyle;rounded=0;orthogonalLoop=1;jettySize=auto;html=1;exitX=0;exitY=0.5;exitDx=0;exitDy=0;entryX=0.5;entryY=0;entryDx=0;entryDy=0;" edge="1" parent="1" source="8iGEUKaCPKgXzd4NFr43-6" target="8iGEUKaCPKgXzd4NFr43-8">
          <mxGeometry relative="1" as="geometry" />
        </mxCell>
        <mxCell id="8iGEUKaCPKgXzd4NFr43-18" value="&lt;font style=&quot;font-size: 21px;&quot; face=&quot;Times New Roman&quot;&gt;Да&lt;/font&gt;" style="edgeLabel;html=1;align=center;verticalAlign=middle;resizable=0;points=[];" vertex="1" connectable="0" parent="8iGEUKaCPKgXzd4NFr43-9">
          <mxGeometry x="-0.4205" y="-2" relative="1" as="geometry">
            <mxPoint as="offset" />
          </mxGeometry>
        </mxCell>
        <mxCell id="8iGEUKaCPKgXzd4NFr43-24" style="edgeStyle=orthogonalEdgeStyle;rounded=0;orthogonalLoop=1;jettySize=auto;html=1;exitX=1;exitY=0.5;exitDx=0;exitDy=0;entryX=0.5;entryY=0;entryDx=0;entryDy=0;" edge="1" parent="1" source="8iGEUKaCPKgXzd4NFr43-6" target="8iGEUKaCPKgXzd4NFr43-19">
          <mxGeometry relative="1" as="geometry" />
        </mxCell>
        <mxCell id="8iGEUKaCPKgXzd4NFr43-25" value="&lt;font style=&quot;font-size: 21px;&quot; face=&quot;Times New Roman&quot;&gt;Нет&lt;/font&gt;" style="edgeLabel;html=1;align=center;verticalAlign=middle;resizable=0;points=[];" vertex="1" connectable="0" parent="8iGEUKaCPKgXzd4NFr43-24">
          <mxGeometry x="-0.5122" y="1" relative="1" as="geometry">
            <mxPoint as="offset" />
          </mxGeometry>
        </mxCell>
        <mxCell id="8iGEUKaCPKgXzd4NFr43-6" value="&lt;font style=&quot;font-size: 21px;&quot; face=&quot;Times New Roman&quot;&gt;j &amp;lt; size&lt;/font&gt;" style="rhombus;whiteSpace=wrap;html=1;" vertex="1" parent="1">
          <mxGeometry x="346" y="540" width="136" height="130" as="geometry" />
        </mxCell>
        <mxCell id="8iGEUKaCPKgXzd4NFr43-14" style="edgeStyle=orthogonalEdgeStyle;rounded=0;orthogonalLoop=1;jettySize=auto;html=1;exitX=1;exitY=0.5;exitDx=0;exitDy=0;entryX=0.5;entryY=0;entryDx=0;entryDy=0;" edge="1" parent="1" source="8iGEUKaCPKgXzd4NFr43-8" target="8iGEUKaCPKgXzd4NFr43-10">
          <mxGeometry relative="1" as="geometry" />
        </mxCell>
        <mxCell id="8iGEUKaCPKgXzd4NFr43-15" value="&lt;font style=&quot;font-size: 21px;&quot; face=&quot;Times New Roman&quot;&gt;Да&lt;/font&gt;" style="edgeLabel;html=1;align=center;verticalAlign=middle;resizable=0;points=[];" vertex="1" connectable="0" parent="8iGEUKaCPKgXzd4NFr43-14">
          <mxGeometry x="-0.6755" y="1" relative="1" as="geometry">
            <mxPoint as="offset" />
          </mxGeometry>
        </mxCell>
        <mxCell id="8iGEUKaCPKgXzd4NFr43-21" style="edgeStyle=orthogonalEdgeStyle;rounded=0;orthogonalLoop=1;jettySize=auto;html=1;exitX=0;exitY=0.5;exitDx=0;exitDy=0;entryX=0.5;entryY=0;entryDx=0;entryDy=0;" edge="1" parent="1" source="8iGEUKaCPKgXzd4NFr43-8" target="8iGEUKaCPKgXzd4NFr43-20">
          <mxGeometry relative="1" as="geometry" />
        </mxCell>
        <mxCell id="8iGEUKaCPKgXzd4NFr43-22" value="&lt;font style=&quot;font-size: 21px;&quot; face=&quot;Times New Roman&quot;&gt;Нет&lt;/font&gt;" style="edgeLabel;html=1;align=center;verticalAlign=middle;resizable=0;points=[];" vertex="1" connectable="0" parent="8iGEUKaCPKgXzd4NFr43-21">
          <mxGeometry x="-0.6649" y="1" relative="1" as="geometry">
            <mxPoint as="offset" />
          </mxGeometry>
        </mxCell>
        <mxCell id="8iGEUKaCPKgXzd4NFr43-8" value="&lt;font style=&quot;font-size: 21px;&quot; face=&quot;Times New Roman&quot;&gt;array[j] == &#39; &#39;&lt;/font&gt;" style="rhombus;whiteSpace=wrap;html=1;" vertex="1" parent="1">
          <mxGeometry x="130" y="640" width="150" height="130" as="geometry" />
        </mxCell>
        <mxCell id="8iGEUKaCPKgXzd4NFr43-10" value="&lt;font style=&quot;font-size: 21px;&quot; face=&quot;Times New Roman&quot;&gt;print(Массив введен не корректно, используются пробелы!)&lt;/font&gt;" style="shape=document;whiteSpace=wrap;html=1;boundedLbl=1;" vertex="1" parent="1">
          <mxGeometry x="299" y="810" width="220" height="170" as="geometry" />
        </mxCell>
        <mxCell id="8iGEUKaCPKgXzd4NFr43-30" style="edgeStyle=orthogonalEdgeStyle;rounded=0;orthogonalLoop=1;jettySize=auto;html=1;exitX=1;exitY=0.5;exitDx=0;exitDy=0;entryX=0.5;entryY=0;entryDx=0;entryDy=0;" edge="1" parent="1" source="8iGEUKaCPKgXzd4NFr43-19" target="8iGEUKaCPKgXzd4NFr43-29">
          <mxGeometry relative="1" as="geometry" />
        </mxCell>
        <mxCell id="8iGEUKaCPKgXzd4NFr43-33" value="&lt;font style=&quot;font-size: 21px;&quot; face=&quot;Times New Roman&quot;&gt;Да&lt;/font&gt;" style="edgeLabel;html=1;align=center;verticalAlign=middle;resizable=0;points=[];" vertex="1" connectable="0" parent="8iGEUKaCPKgXzd4NFr43-30">
          <mxGeometry x="-0.4571" y="-1" relative="1" as="geometry">
            <mxPoint x="3" y="-1" as="offset" />
          </mxGeometry>
        </mxCell>
        <mxCell id="8iGEUKaCPKgXzd4NFr43-68" value="&#xa;&lt;br style=&quot;border-color: var(--border-color); color: rgb(0, 0, 0); font-family: Helvetica; font-size: 11px; font-style: normal; font-variant-ligatures: normal; font-variant-caps: normal; font-weight: 400; letter-spacing: normal; orphans: 2; text-align: center; text-indent: 0px; text-transform: none; widows: 2; word-spacing: 0px; -webkit-text-stroke-width: 0px; text-decoration-thickness: initial; text-decoration-style: initial; text-decoration-color: initial;&quot;&gt;&lt;br style=&quot;border-color: var(--border-color); color: rgb(0, 0, 0); font-family: Helvetica; font-size: 11px; font-style: normal; font-variant-ligatures: normal; font-variant-caps: normal; font-weight: 400; letter-spacing: normal; orphans: 2; text-align: center; text-indent: 0px; text-transform: none; widows: 2; word-spacing: 0px; -webkit-text-stroke-width: 0px; text-decoration-thickness: initial; text-decoration-style: initial; text-decoration-color: initial;&quot;&gt;&lt;span style=&quot;border-color: var(--border-color); color: rgb(0, 0, 0); font-style: normal; font-variant-ligatures: normal; font-variant-caps: normal; font-weight: 400; letter-spacing: normal; orphans: 2; text-align: center; text-indent: 0px; text-transform: none; widows: 2; word-spacing: 0px; -webkit-text-stroke-width: 0px; background-color: rgb(255, 255, 255); text-decoration-thickness: initial; text-decoration-style: initial; text-decoration-color: initial; font-family: &amp;quot;Times New Roman&amp;quot;; font-size: 21px; float: none; display: inline !important;&quot;&gt;Нет&lt;/span&gt;&lt;br style=&quot;border-color: var(--border-color); color: rgb(0, 0, 0); font-family: Helvetica; font-size: 11px; font-style: normal; font-variant-ligatures: normal; font-variant-caps: normal; font-weight: 400; letter-spacing: normal; orphans: 2; text-align: center; text-indent: 0px; text-transform: none; widows: 2; word-spacing: 0px; -webkit-text-stroke-width: 0px; text-decoration-thickness: initial; text-decoration-style: initial; text-decoration-color: initial;&quot;&gt;&lt;br style=&quot;border-color: var(--border-color); color: rgb(0, 0, 0); font-family: Helvetica; font-size: 11px; font-style: normal; font-variant-ligatures: normal; font-variant-caps: normal; font-weight: 400; letter-spacing: normal; orphans: 2; text-align: center; text-indent: 0px; text-transform: none; widows: 2; word-spacing: 0px; -webkit-text-stroke-width: 0px; text-decoration-thickness: initial; text-decoration-style: initial; text-decoration-color: initial;&quot;&gt;&#xa;&#xa;" style="edgeStyle=orthogonalEdgeStyle;rounded=0;orthogonalLoop=1;jettySize=auto;html=1;exitX=0;exitY=0.5;exitDx=0;exitDy=0;entryX=0.5;entryY=0;entryDx=0;entryDy=0;" edge="1" parent="1" source="8iGEUKaCPKgXzd4NFr43-19" target="8iGEUKaCPKgXzd4NFr43-67">
          <mxGeometry x="-0.1579" relative="1" as="geometry">
            <mxPoint as="offset" />
          </mxGeometry>
        </mxCell>
        <mxCell id="8iGEUKaCPKgXzd4NFr43-19" value="&lt;font style=&quot;font-size: 21px;&quot; face=&quot;Times New Roman&quot;&gt;i &amp;lt; size&lt;/font&gt;" style="rhombus;whiteSpace=wrap;html=1;" vertex="1" parent="1">
          <mxGeometry x="720" y="640" width="130" height="120" as="geometry" />
        </mxCell>
        <mxCell id="8iGEUKaCPKgXzd4NFr43-23" style="edgeStyle=orthogonalEdgeStyle;rounded=0;orthogonalLoop=1;jettySize=auto;html=1;exitX=0;exitY=0.5;exitDx=0;exitDy=0;entryX=0;entryY=0;entryDx=0;entryDy=0;" edge="1" parent="1" source="8iGEUKaCPKgXzd4NFr43-20" target="8iGEUKaCPKgXzd4NFr43-6">
          <mxGeometry relative="1" as="geometry">
            <mxPoint x="-40" y="430" as="targetPoint" />
            <Array as="points">
              <mxPoint x="-100" y="830" />
              <mxPoint x="-100" y="573" />
            </Array>
          </mxGeometry>
        </mxCell>
        <mxCell id="8iGEUKaCPKgXzd4NFr43-20" value="&lt;font style=&quot;font-size: 21px;&quot; face=&quot;Times New Roman&quot;&gt;j++&lt;/font&gt;" style="rounded=1;whiteSpace=wrap;html=1;" vertex="1" parent="1">
          <mxGeometry x="-20" y="800" width="120" height="60" as="geometry" />
        </mxCell>
        <mxCell id="8iGEUKaCPKgXzd4NFr43-32" style="edgeStyle=orthogonalEdgeStyle;rounded=0;orthogonalLoop=1;jettySize=auto;html=1;exitX=0.5;exitY=1;exitDx=0;exitDy=0;entryX=0.5;entryY=0;entryDx=0;entryDy=0;" edge="1" parent="1" source="8iGEUKaCPKgXzd4NFr43-29" target="8iGEUKaCPKgXzd4NFr43-31">
          <mxGeometry relative="1" as="geometry" />
        </mxCell>
        <mxCell id="8iGEUKaCPKgXzd4NFr43-29" value="&lt;font style=&quot;font-size: 21px;&quot; face=&quot;Times New Roman&quot;&gt;count++&lt;/font&gt;" style="rounded=1;whiteSpace=wrap;html=1;" vertex="1" parent="1">
          <mxGeometry x="970" y="730" width="120" height="60" as="geometry" />
        </mxCell>
        <mxCell id="8iGEUKaCPKgXzd4NFr43-35" style="edgeStyle=orthogonalEdgeStyle;rounded=0;orthogonalLoop=1;jettySize=auto;html=1;exitX=1;exitY=0.5;exitDx=0;exitDy=0;entryX=0.5;entryY=0;entryDx=0;entryDy=0;" edge="1" parent="1" source="8iGEUKaCPKgXzd4NFr43-31" target="8iGEUKaCPKgXzd4NFr43-34">
          <mxGeometry relative="1" as="geometry" />
        </mxCell>
        <mxCell id="8iGEUKaCPKgXzd4NFr43-36" value="&lt;font style=&quot;font-size: 21px;&quot; face=&quot;Times New Roman&quot;&gt;Да&lt;/font&gt;" style="edgeLabel;html=1;align=center;verticalAlign=middle;resizable=0;points=[];" vertex="1" connectable="0" parent="8iGEUKaCPKgXzd4NFr43-35">
          <mxGeometry x="-0.6364" relative="1" as="geometry">
            <mxPoint as="offset" />
          </mxGeometry>
        </mxCell>
        <mxCell id="8iGEUKaCPKgXzd4NFr43-54" value="&#xa;&lt;span style=&quot;color: rgb(0, 0, 0); font-family: &amp;quot;Times New Roman&amp;quot;; font-size: 21px; font-style: normal; font-variant-ligatures: normal; font-variant-caps: normal; font-weight: 400; letter-spacing: normal; orphans: 2; text-align: center; text-indent: 0px; text-transform: none; widows: 2; word-spacing: 0px; -webkit-text-stroke-width: 0px; background-color: rgb(255, 255, 255); text-decoration-thickness: initial; text-decoration-style: initial; text-decoration-color: initial; float: none; display: inline !important;&quot;&gt;Нет&lt;/span&gt;&#xa;&#xa;" style="edgeStyle=orthogonalEdgeStyle;rounded=0;orthogonalLoop=1;jettySize=auto;html=1;exitX=0;exitY=0.5;exitDx=0;exitDy=0;entryX=0.5;entryY=0;entryDx=0;entryDy=0;" edge="1" parent="1" source="8iGEUKaCPKgXzd4NFr43-31" target="8iGEUKaCPKgXzd4NFr43-53">
          <mxGeometry x="-0.6364" y="10" relative="1" as="geometry">
            <mxPoint as="offset" />
          </mxGeometry>
        </mxCell>
        <mxCell id="8iGEUKaCPKgXzd4NFr43-31" value="&lt;font style=&quot;font-size: 21px;&quot; face=&quot;Times New Roman&quot;&gt;array[i] == &#39;;&#39; &amp;amp;&amp;amp; count &amp;lt;= 3&lt;/font&gt;" style="rhombus;whiteSpace=wrap;html=1;" vertex="1" parent="1">
          <mxGeometry x="900" y="840" width="260" height="200" as="geometry" />
        </mxCell>
        <mxCell id="8iGEUKaCPKgXzd4NFr43-38" style="edgeStyle=orthogonalEdgeStyle;rounded=0;orthogonalLoop=1;jettySize=auto;html=1;exitX=1;exitY=0.5;exitDx=0;exitDy=0;entryX=0.5;entryY=0;entryDx=0;entryDy=0;" edge="1" parent="1" source="8iGEUKaCPKgXzd4NFr43-34" target="8iGEUKaCPKgXzd4NFr43-37">
          <mxGeometry relative="1" as="geometry" />
        </mxCell>
        <mxCell id="8iGEUKaCPKgXzd4NFr43-49" style="edgeStyle=orthogonalEdgeStyle;rounded=0;orthogonalLoop=1;jettySize=auto;html=1;exitX=0;exitY=0.5;exitDx=0;exitDy=0;entryX=0.5;entryY=0;entryDx=0;entryDy=0;" edge="1" parent="1" source="8iGEUKaCPKgXzd4NFr43-34" target="8iGEUKaCPKgXzd4NFr43-46">
          <mxGeometry relative="1" as="geometry" />
        </mxCell>
        <mxCell id="8iGEUKaCPKgXzd4NFr43-34" value="&lt;font style=&quot;font-size: 21px;&quot; face=&quot;Times New Roman&quot;&gt;array[i - count] != &#39;;&#39;&lt;/font&gt;" style="rhombus;whiteSpace=wrap;html=1;" vertex="1" parent="1">
          <mxGeometry x="1241" y="990" width="200" height="170" as="geometry" />
        </mxCell>
        <mxCell id="8iGEUKaCPKgXzd4NFr43-37" value="&lt;font style=&quot;font-size: 21px;&quot; face=&quot;Times New Roman&quot;&gt;&amp;nbsp;print(array[i - count])&lt;/font&gt;" style="shape=document;whiteSpace=wrap;html=1;boundedLbl=1;" vertex="1" parent="1">
          <mxGeometry x="1520" y="1150" width="190" height="110" as="geometry" />
        </mxCell>
        <mxCell id="8iGEUKaCPKgXzd4NFr43-39" value="&lt;font style=&quot;font-size: 21px;&quot; face=&quot;Times New Roman&quot;&gt;Да&lt;/font&gt;" style="edgeLabel;html=1;align=center;verticalAlign=middle;resizable=0;points=[];" vertex="1" connectable="0" parent="1">
          <mxGeometry x="1480" y="1075" as="geometry" />
        </mxCell>
        <mxCell id="8iGEUKaCPKgXzd4NFr43-44" style="edgeStyle=orthogonalEdgeStyle;rounded=0;orthogonalLoop=1;jettySize=auto;html=1;exitX=0.5;exitY=1;exitDx=0;exitDy=0;" edge="1" parent="1" source="8iGEUKaCPKgXzd4NFr43-41">
          <mxGeometry relative="1" as="geometry">
            <mxPoint x="1390" y="1030" as="targetPoint" />
            <Array as="points">
              <mxPoint x="1615" y="1390" />
              <mxPoint x="1760" y="1390" />
              <mxPoint x="1760" y="1030" />
            </Array>
          </mxGeometry>
        </mxCell>
        <mxCell id="8iGEUKaCPKgXzd4NFr43-41" value="&lt;font style=&quot;font-size: 21px;&quot; face=&quot;Times New Roman&quot;&gt;count--&lt;/font&gt;" style="rounded=1;whiteSpace=wrap;html=1;" vertex="1" parent="1">
          <mxGeometry x="1555" y="1300" width="120" height="60" as="geometry" />
        </mxCell>
        <mxCell id="8iGEUKaCPKgXzd4NFr43-43" value="" style="endArrow=classic;html=1;rounded=0;entryX=0.5;entryY=0;entryDx=0;entryDy=0;exitX=0.505;exitY=0.891;exitDx=0;exitDy=0;exitPerimeter=0;" edge="1" parent="1" source="8iGEUKaCPKgXzd4NFr43-37" target="8iGEUKaCPKgXzd4NFr43-41">
          <mxGeometry width="50" height="50" relative="1" as="geometry">
            <mxPoint x="1590" y="1290" as="sourcePoint" />
            <mxPoint x="1640" y="1240" as="targetPoint" />
          </mxGeometry>
        </mxCell>
        <mxCell id="8iGEUKaCPKgXzd4NFr43-51" style="edgeStyle=orthogonalEdgeStyle;rounded=0;orthogonalLoop=1;jettySize=auto;html=1;exitX=0.5;exitY=1;exitDx=0;exitDy=0;entryX=0.5;entryY=0;entryDx=0;entryDy=0;" edge="1" parent="1" source="8iGEUKaCPKgXzd4NFr43-46" target="8iGEUKaCPKgXzd4NFr43-50">
          <mxGeometry relative="1" as="geometry" />
        </mxCell>
        <mxCell id="8iGEUKaCPKgXzd4NFr43-46" value="&lt;font style=&quot;font-size: 21px;&quot; face=&quot;Times New Roman&quot;&gt;count = -1&lt;br&gt;errorArray++&lt;br&gt;i++&lt;/font&gt;" style="rounded=1;whiteSpace=wrap;html=1;" vertex="1" parent="1">
          <mxGeometry x="1030" y="1150" width="143" height="90" as="geometry" />
        </mxCell>
        <mxCell id="8iGEUKaCPKgXzd4NFr43-48" value="&lt;font style=&quot;font-size: 21px;&quot; face=&quot;Times New Roman&quot;&gt;Нет&lt;/font&gt;" style="edgeLabel;html=1;align=center;verticalAlign=middle;resizable=0;points=[];" vertex="1" connectable="0" parent="1">
          <mxGeometry x="1050" y="850" as="geometry">
            <mxPoint x="145" y="228" as="offset" />
          </mxGeometry>
        </mxCell>
        <mxCell id="8iGEUKaCPKgXzd4NFr43-66" style="edgeStyle=orthogonalEdgeStyle;rounded=0;orthogonalLoop=1;jettySize=auto;html=1;" edge="1" parent="1" source="8iGEUKaCPKgXzd4NFr43-50">
          <mxGeometry relative="1" as="geometry">
            <mxPoint x="770" y="1300" as="targetPoint" />
            <Array as="points">
              <mxPoint x="970" y="1300" />
              <mxPoint x="970" y="1300" />
            </Array>
          </mxGeometry>
        </mxCell>
        <mxCell id="8iGEUKaCPKgXzd4NFr43-50" value="&lt;font style=&quot;font-size: 21px;&quot; face=&quot;Times New Roman&quot;&gt;print(;)&lt;/font&gt;" style="shape=document;whiteSpace=wrap;html=1;boundedLbl=1;" vertex="1" parent="1">
          <mxGeometry x="1041.5" y="1290" width="120" height="80" as="geometry" />
        </mxCell>
        <mxCell id="8iGEUKaCPKgXzd4NFr43-56" value="&#xa;&lt;span style=&quot;color: rgb(0, 0, 0); font-family: &amp;quot;Times New Roman&amp;quot;; font-size: 21px; font-style: normal; font-variant-ligatures: normal; font-variant-caps: normal; font-weight: 400; letter-spacing: normal; orphans: 2; text-align: center; text-indent: 0px; text-transform: none; widows: 2; word-spacing: 0px; -webkit-text-stroke-width: 0px; background-color: rgb(255, 255, 255); text-decoration-thickness: initial; text-decoration-style: initial; text-decoration-color: initial; float: none; display: inline !important;&quot;&gt;Да&lt;/span&gt;&#xa;&#xa;" style="edgeStyle=orthogonalEdgeStyle;rounded=0;orthogonalLoop=1;jettySize=auto;html=1;exitX=1;exitY=0.5;exitDx=0;exitDy=0;entryX=0.5;entryY=0;entryDx=0;entryDy=0;" edge="1" parent="1" source="8iGEUKaCPKgXzd4NFr43-53" target="8iGEUKaCPKgXzd4NFr43-55">
          <mxGeometry x="-0.6296" y="-5" relative="1" as="geometry">
            <mxPoint as="offset" />
          </mxGeometry>
        </mxCell>
        <mxCell id="8iGEUKaCPKgXzd4NFr43-58" value="&#xa;&lt;br style=&quot;border-color: var(--border-color); color: rgb(0, 0, 0); font-family: Helvetica; font-size: 11px; font-style: normal; font-variant-ligatures: normal; font-variant-caps: normal; font-weight: 400; letter-spacing: normal; orphans: 2; text-align: center; text-indent: 0px; text-transform: none; widows: 2; word-spacing: 0px; -webkit-text-stroke-width: 0px; text-decoration-thickness: initial; text-decoration-style: initial; text-decoration-color: initial;&quot;&gt;&lt;span style=&quot;border-color: var(--border-color); color: rgb(0, 0, 0); font-style: normal; font-variant-ligatures: normal; font-variant-caps: normal; font-weight: 400; letter-spacing: normal; orphans: 2; text-align: center; text-indent: 0px; text-transform: none; widows: 2; word-spacing: 0px; -webkit-text-stroke-width: 0px; background-color: rgb(255, 255, 255); text-decoration-thickness: initial; text-decoration-style: initial; text-decoration-color: initial; font-family: &amp;quot;Times New Roman&amp;quot;; font-size: 21px; float: none; display: inline !important;&quot;&gt;Нет&lt;/span&gt;&lt;br style=&quot;border-color: var(--border-color); color: rgb(0, 0, 0); font-family: Helvetica; font-size: 11px; font-style: normal; font-variant-ligatures: normal; font-variant-caps: normal; font-weight: 400; letter-spacing: normal; orphans: 2; text-align: center; text-indent: 0px; text-transform: none; widows: 2; word-spacing: 0px; -webkit-text-stroke-width: 0px; text-decoration-thickness: initial; text-decoration-style: initial; text-decoration-color: initial;&quot;&gt;&#xa;&#xa;" style="edgeStyle=orthogonalEdgeStyle;rounded=0;orthogonalLoop=1;jettySize=auto;html=1;exitX=0;exitY=0.5;exitDx=0;exitDy=0;entryX=0.5;entryY=0;entryDx=0;entryDy=0;" edge="1" parent="1" source="8iGEUKaCPKgXzd4NFr43-53" target="8iGEUKaCPKgXzd4NFr43-57">
          <mxGeometry x="-0.6364" y="5" relative="1" as="geometry">
            <mxPoint as="offset" />
          </mxGeometry>
        </mxCell>
        <mxCell id="8iGEUKaCPKgXzd4NFr43-53" value="&lt;font style=&quot;font-size: 21px;&quot; face=&quot;Times New Roman&quot;&gt;array[i] == &#39;;&#39; &amp;amp;&amp;amp; count &amp;gt; 3&lt;/font&gt;" style="rhombus;whiteSpace=wrap;html=1;" vertex="1" parent="1">
          <mxGeometry x="580" y="1050" width="250" height="170" as="geometry" />
        </mxCell>
        <mxCell id="8iGEUKaCPKgXzd4NFr43-64" style="edgeStyle=orthogonalEdgeStyle;rounded=0;orthogonalLoop=1;jettySize=auto;html=1;exitX=0.5;exitY=1;exitDx=0;exitDy=0;" edge="1" parent="1" source="8iGEUKaCPKgXzd4NFr43-55">
          <mxGeometry relative="1" as="geometry">
            <mxPoint x="490" y="1300" as="targetPoint" />
            <Array as="points">
              <mxPoint x="887" y="1300" />
            </Array>
          </mxGeometry>
        </mxCell>
        <mxCell id="8iGEUKaCPKgXzd4NFr43-55" value="&lt;font style=&quot;font-size: 21px;&quot; face=&quot;Times New Roman&quot;&gt;count = -1&lt;br&gt;i++&lt;br&gt;&lt;/font&gt;" style="rounded=1;whiteSpace=wrap;html=1;" vertex="1" parent="1">
          <mxGeometry x="827" y="1220" width="120" height="60" as="geometry" />
        </mxCell>
        <mxCell id="8iGEUKaCPKgXzd4NFr43-63" style="edgeStyle=orthogonalEdgeStyle;rounded=0;orthogonalLoop=1;jettySize=auto;html=1;exitX=0.5;exitY=1;exitDx=0;exitDy=0;entryX=0;entryY=0;entryDx=0;entryDy=0;" edge="1" parent="1" source="8iGEUKaCPKgXzd4NFr43-57" target="8iGEUKaCPKgXzd4NFr43-19">
          <mxGeometry relative="1" as="geometry">
            <mxPoint x="410" y="970" as="targetPoint" />
            <Array as="points">
              <mxPoint x="490" y="1300" />
              <mxPoint x="390" y="1300" />
              <mxPoint x="390" y="1080" />
              <mxPoint x="530" y="1080" />
              <mxPoint x="530" y="670" />
            </Array>
          </mxGeometry>
        </mxCell>
        <mxCell id="8iGEUKaCPKgXzd4NFr43-57" value="&lt;font style=&quot;font-size: 21px;&quot; face=&quot;Times New Roman&quot;&gt;count = -1&lt;/font&gt;&lt;font style=&quot;font-size: 21px;&quot; face=&quot;Times New Roman&quot;&gt;&lt;br&gt;i++&lt;/font&gt;" style="rounded=1;whiteSpace=wrap;html=1;" vertex="1" parent="1">
          <mxGeometry x="430" y="1210" width="120" height="60" as="geometry" />
        </mxCell>
        <mxCell id="8iGEUKaCPKgXzd4NFr43-70" value="&#xa;&lt;span style=&quot;color: rgb(0, 0, 0); font-family: &amp;quot;Times New Roman&amp;quot;; font-size: 21px; font-style: normal; font-variant-ligatures: normal; font-variant-caps: normal; font-weight: 400; letter-spacing: normal; orphans: 2; text-align: center; text-indent: 0px; text-transform: none; widows: 2; word-spacing: 0px; -webkit-text-stroke-width: 0px; background-color: rgb(255, 255, 255); text-decoration-thickness: initial; text-decoration-style: initial; text-decoration-color: initial; float: none; display: inline !important;&quot;&gt;Да&lt;/span&gt;&#xa;&#xa;" style="edgeStyle=orthogonalEdgeStyle;rounded=0;orthogonalLoop=1;jettySize=auto;html=1;exitX=1;exitY=0.5;exitDx=0;exitDy=0;entryX=0.5;entryY=0;entryDx=0;entryDy=0;" edge="1" parent="1" source="8iGEUKaCPKgXzd4NFr43-67" target="8iGEUKaCPKgXzd4NFr43-69">
          <mxGeometry x="-0.7333" relative="1" as="geometry">
            <Array as="points">
              <mxPoint x="750" y="795" />
              <mxPoint x="750" y="790" />
              <mxPoint x="855" y="790" />
            </Array>
            <mxPoint as="offset" />
          </mxGeometry>
        </mxCell>
        <mxCell id="8iGEUKaCPKgXzd4NFr43-72" value="&#xa;&lt;br style=&quot;border-color: var(--border-color); color: rgb(0, 0, 0); font-family: Helvetica; font-size: 11px; font-style: normal; font-variant-ligatures: normal; font-variant-caps: normal; font-weight: 400; letter-spacing: normal; orphans: 2; text-align: center; text-indent: 0px; text-transform: none; widows: 2; word-spacing: 0px; -webkit-text-stroke-width: 0px; text-decoration-thickness: initial; text-decoration-style: initial; text-decoration-color: initial;&quot;&gt;&lt;br style=&quot;border-color: var(--border-color); color: rgb(0, 0, 0); font-family: Helvetica; font-size: 11px; font-style: normal; font-variant-ligatures: normal; font-variant-caps: normal; font-weight: 400; letter-spacing: normal; orphans: 2; text-align: center; text-indent: 0px; text-transform: none; widows: 2; word-spacing: 0px; -webkit-text-stroke-width: 0px; text-decoration-thickness: initial; text-decoration-style: initial; text-decoration-color: initial;&quot;&gt;&lt;br style=&quot;border-color: var(--border-color); color: rgb(0, 0, 0); font-family: Helvetica; font-size: 11px; font-style: normal; font-variant-ligatures: normal; font-variant-caps: normal; font-weight: 400; letter-spacing: normal; orphans: 2; text-align: center; text-indent: 0px; text-transform: none; widows: 2; word-spacing: 0px; -webkit-text-stroke-width: 0px; text-decoration-thickness: initial; text-decoration-style: initial; text-decoration-color: initial;&quot;&gt;&lt;span style=&quot;border-color: var(--border-color); color: rgb(0, 0, 0); font-style: normal; font-variant-ligatures: normal; font-variant-caps: normal; font-weight: 400; letter-spacing: normal; orphans: 2; text-align: center; text-indent: 0px; text-transform: none; widows: 2; word-spacing: 0px; -webkit-text-stroke-width: 0px; background-color: rgb(255, 255, 255); text-decoration-thickness: initial; text-decoration-style: initial; text-decoration-color: initial; font-family: &amp;quot;Times New Roman&amp;quot;; font-size: 21px; float: none; display: inline !important;&quot;&gt;Нет&lt;/span&gt;&lt;br style=&quot;border-color: var(--border-color); color: rgb(0, 0, 0); font-family: Helvetica; font-size: 11px; font-style: normal; font-variant-ligatures: normal; font-variant-caps: normal; font-weight: 400; letter-spacing: normal; orphans: 2; text-align: center; text-indent: 0px; text-transform: none; widows: 2; word-spacing: 0px; -webkit-text-stroke-width: 0px; text-decoration-thickness: initial; text-decoration-style: initial; text-decoration-color: initial;&quot;&gt;&lt;br style=&quot;border-color: var(--border-color); color: rgb(0, 0, 0); font-family: Helvetica; font-size: 11px; font-style: normal; font-variant-ligatures: normal; font-variant-caps: normal; font-weight: 400; letter-spacing: normal; orphans: 2; text-align: center; text-indent: 0px; text-transform: none; widows: 2; word-spacing: 0px; -webkit-text-stroke-width: 0px; text-decoration-thickness: initial; text-decoration-style: initial; text-decoration-color: initial;&quot;&gt;&lt;br style=&quot;border-color: var(--border-color); color: rgb(0, 0, 0); font-family: Helvetica; font-size: 11px; font-style: normal; font-variant-ligatures: normal; font-variant-caps: normal; font-weight: 400; letter-spacing: normal; orphans: 2; text-align: center; text-indent: 0px; text-transform: none; widows: 2; word-spacing: 0px; -webkit-text-stroke-width: 0px; text-decoration-thickness: initial; text-decoration-style: initial; text-decoration-color: initial;&quot;&gt;&#xa;&#xa;" style="edgeStyle=orthogonalEdgeStyle;rounded=0;orthogonalLoop=1;jettySize=auto;html=1;exitX=0;exitY=0.5;exitDx=0;exitDy=0;entryX=0.5;entryY=0;entryDx=0;entryDy=0;" edge="1" parent="1" source="8iGEUKaCPKgXzd4NFr43-67" target="8iGEUKaCPKgXzd4NFr43-71">
          <mxGeometry x="-0.7949" relative="1" as="geometry">
            <Array as="points">
              <mxPoint x="540" y="795" />
              <mxPoint x="540" y="880" />
              <mxPoint x="600" y="880" />
            </Array>
            <mxPoint as="offset" />
          </mxGeometry>
        </mxCell>
        <mxCell id="8iGEUKaCPKgXzd4NFr43-67" value="&lt;font style=&quot;font-size: 21px;&quot; face=&quot;Times New Roman&quot;&gt;errorArray == 0&lt;/font&gt;" style="rhombus;whiteSpace=wrap;html=1;" vertex="1" parent="1">
          <mxGeometry x="580" y="730" width="150" height="130" as="geometry" />
        </mxCell>
        <mxCell id="8iGEUKaCPKgXzd4NFr43-69" value="&lt;font style=&quot;font-size: 17px;&quot; face=&quot;Times New Roman&quot;&gt;print(Соответсвующих элементов в массиве нет!)&lt;/font&gt;" style="shape=document;whiteSpace=wrap;html=1;boundedLbl=1;" vertex="1" parent="1">
          <mxGeometry x="770" y="810" width="170" height="100" as="geometry" />
        </mxCell>
        <mxCell id="8iGEUKaCPKgXzd4NFr43-71" value="&lt;font style=&quot;font-size: 21px;&quot; face=&quot;Times New Roman&quot;&gt;End&lt;/font&gt;" style="ellipse;whiteSpace=wrap;html=1;" vertex="1" parent="1">
          <mxGeometry x="540" y="890" width="120" height="70" as="geometry" />
        </mxCell>
      </root>
    </mxGraphModel>
  </diagram>
</mxfile>
